<?xml version="1.0" standalone="no"?>
<!DOCTYPE svg PUBLIC "-//W3C//DTD SVG 20010904//EN"
 "http://www.w3.org/TR/2001/REC-SVG-20010904/DTD/svg10.dtd">
<svg version="1.0" xmlns="http://www.w3.org/2000/svg"
 width="225.000000pt" height="225.000000pt" viewBox="0 0 225.000000 225.000000"
 preserveAspectRatio="xMidYMid meet">

<g transform="translate(0.000000,225.000000) scale(0.100000,-0.100000)"
fill="#000000" stroke="none">
<path d="M2080 1971 c0 -5 -10 -7 -22 -3 -14 3 -19 2 -14 -6 4 -7 22 -12 40
-12 19 0 39 -7 47 -17 8 -9 9 -14 3 -10 -6 3 -22 -5 -34 -18 -17 -18 -34 -25
-61 -25 -23 0 -39 -5 -42 -14 -3 -8 -16 -16 -29 -18 -18 -2 -24 -10 -26 -38
-4 -40 -22 -67 -22 -32 0 27 -35 30 -65 4 -16 -13 -20 -27 -19 -67 2 -49 2
-49 -5 -10 -7 39 -8 39 -18 15 -9 -21 -12 -22 -18 -8 -3 9 -2 26 5 37 8 17 8
21 -3 21 -8 0 -17 -9 -20 -21 -5 -17 -9 -19 -26 -10 -29 16 -48 13 -25 -4 18
-14 18 -14 -11 -16 -16 0 -41 -5 -55 -10 -20 -7 -18 -8 13 -4 20 3 52 8 71 11
43 7 51 -14 24 -68 -10 -21 -18 -52 -19 -70 0 -24 -2 -28 -8 -15 -5 13 -82
-132 -280 -525 -151 -299 -282 -558 -293 -575 -20 -34 -52 -44 -61 -20 -3 8
18 125 46 261 34 165 47 250 41 256 -7 7 -32 4 -75 -10 -83 -26 -103 -25 -123
5 -14 21 -14 24 -1 19 12 -5 15 2 16 32 1 22 1 44 0 51 -1 6 3 14 9 18 13 8
13 35 0 35 -5 0 -10 -8 -10 -17 0 -9 -3 -14 -6 -10 -10 10 7 47 22 47 8 0 14
10 14 25 0 23 -2 24 -20 15 -20 -11 -27 -29 -33 -90 -3 -31 -4 -29 -6 10 -1
33 -4 41 -11 30 -6 -8 -8 -26 -7 -40 2 -14 2 -19 0 -12 -7 18 -48 15 -66 -6
-10 -10 -17 -35 -17 -55 l0 -37 -64 0 c-57 0 -67 -3 -84 -25 -11 -14 -29 -25
-40 -25 -11 0 -25 -7 -33 -16 -11 -13 -10 -22 7 -52 45 -85 82 -141 89 -134 5
4 5 2 2 -4 -8 -13 41 -106 52 -100 4 3 7 -3 7 -12 0 -9 63 -128 139 -265 142
-251 156 -268 202 -253 10 3 31 30 47 59 16 28 169 304 341 612 171 308 327
587 345 620 18 33 36 65 40 70 8 11 65 115 112 205 16 30 33 59 38 65 4 5 31
52 59 103 50 91 64 126 36 88 -8 -11 -15 -15 -15 -8 0 6 10 18 22 26 13 10 17
16 9 16 -8 0 -11 3 -8 7 4 3 2 12 -4 20 -13 15 -99 18 -99 4z m90 -10 c0 -4
-11 -6 -25 -3 -14 2 -25 6 -25 8 0 2 11 4 25 4 14 0 25 -4 25 -9z m-70 -115
c0 -3 -4 -8 -10 -11 -5 -3 -10 -1 -10 4 0 6 5 11 10 11 6 0 10 -2 10 -4z m-93
-158 c-3 -8 -6 -5 -6 6 -1 11 2 17 5 13 3 -3 4 -12 1 -19z m43 2 c0 -5 -2 -10
-4 -10 -3 0 -8 5 -11 10 -3 6 -1 10 4 10 6 0 11 -4 11 -10z m-226 -40 c3 -14
3 -19 0 -12 -8 17 -31 15 -38 -4 -4 -9 -9 -15 -12 -12 -2 3 3 19 13 36 19 33
27 32 37 -8z m209 5 c-3 -9 -8 -14 -10 -11 -3 3 -2 9 2 15 9 16 15 13 8 -4z
m-312 -158 c-10 -9 -11 -8 -5 6 3 10 9 15 12 12 3 -3 0 -11 -7 -18z m-754
-514 c-3 -10 -5 -4 -5 12 0 17 2 24 5 18 2 -7 2 -21 0 -30z m-250 -108 c4 -4
3 -5 -4 -1 -7 3 -14 -2 -18 -14 -4 -11 -10 -18 -15 -15 -5 3 -6 13 -3 22 4 11
3 14 -5 9 -7 -4 -12 -2 -12 4 0 12 45 9 57 -5z m-3 -55 c-5 -5 -10 3 -11 18
-1 22 0 24 9 8 6 -10 6 -22 2 -26z"/>
<path d="M1970 1950 c-20 -7 -17 -8 17 -7 22 1 39 5 36 10 -5 9 -20 8 -53 -3z"/>
<path d="M1888 1933 c7 -3 16 -2 19 1 4 3 -2 6 -13 5 -11 0 -14 -3 -6 -6z"/>
<path d="M1718 1903 c7 -3 16 -2 19 1 4 3 -2 6 -13 5 -11 0 -14 -3 -6 -6z"/>
<path d="M1678 1893 c7 -3 16 -2 19 1 4 3 -2 6 -13 5 -11 0 -14 -3 -6 -6z"/>
<path d="M1613 1883 c9 -2 23 -2 30 0 6 3 -1 5 -18 5 -16 0 -22 -2 -12 -5z"/>
<path d="M1768 1863 c6 -2 18 -2 25 0 6 3 1 5 -13 5 -14 0 -19 -2 -12 -5z"/>
<path d="M1663 1753 c9 -2 23 -2 30 0 6 3 -1 5 -18 5 -16 0 -22 -2 -12 -5z"/>
<path d="M1511 1724 c0 -11 3 -14 6 -6 3 7 2 16 -1 19 -3 4 -6 -2 -5 -13z"/>
<path d="M1668 1733 c7 -3 16 -2 19 1 4 3 -2 6 -13 5 -11 0 -14 -3 -6 -6z"/>
<path d="M990 1280 c-20 -6 -21 -8 -5 -8 11 0 29 3 40 8 25 11 -1 11 -35 0z"/>
<path d="M1052 1265 c0 -16 2 -22 5 -12 2 9 2 23 0 30 -3 6 -5 -1 -5 -18z"/>
<path d="M968 1243 c6 -2 18 -2 25 0 6 3 1 5 -13 5 -14 0 -19 -2 -12 -5z"/>
<path d="M1036 1207 c3 -10 9 -15 12 -12 3 3 0 11 -7 18 -10 9 -11 8 -5 -6z"/>
<path d="M526 1097 c3 -10 9 -15 12 -12 3 3 0 11 -7 18 -10 9 -11 8 -5 -6z"/>
<path d="M595 981 c-3 -5 -1 -12 5 -16 5 -3 10 1 10 9 0 18 -6 21 -15 7z"/>
</g>
</svg>
